<mxfile host="app.diagrams.net" modified="2023-10-17T08:41:33.847Z" agent="Mozilla/5.0 (Windows NT 10.0; Win64; x64) AppleWebKit/537.36 (KHTML, like Gecko) Chrome/116.0.0.0 Safari/537.36 OPR/102.0.0.0 (Edition std-1)" version="22.0.4" etag="4spgoJPJ-YdExUKQg9KT" type="github">
  <diagram name="PÃ¡gina-1" id="-NdraGJS-0DFVX8-Y1tH">
    <mxGraphModel>
      <root>
        <mxCell id="0" />
        <mxCell id="1" parent="0" />
      </root>
    </mxGraphModel>
  </diagram>
</mxfile>
